<?xml version="1.0" encoding="utf-8"?>
<!-- Generator: Adobe Illustrator 17.1.0, SVG Export Plug-In . SVG Version: 6.00 Build 0)  -->
<!DOCTYPE svg PUBLIC "-//W3C//DTD SVG 1.1//EN" "http://www.w3.org/Graphics/SVG/1.1/DTD/svg11.dtd">
<svg version="1.1" id="Layer_1" xmlns="http://www.w3.org/2000/svg" xmlns:xlink="http://www.w3.org/1999/xlink" x="0px" y="0px"
	 viewBox="0 0 758.333 113.789" enable-background="new 0 0 758.333 113.789" xml:space="preserve">
<circle fill="#FFFFFF" cx="4.161" cy="56.894" r="4.161"/>
<circle fill="#FFFFFF" cx="138.387" cy="56.894" r="4.161"/>
<path fill="#FFFFFF" d="M64.364,64.174H14.928c-0.154,0-0.276,0.135-0.259,0.289c3.004,27.013,25.449,48.229,52.984,49.326
	c0.147,0.006,0.271-0.113,0.271-0.26V66.119C66.569,65.78,65.351,65.101,64.364,64.174z"/>
<path fill="#FFFFFF" d="M74.625,0.26v47.409c1.354,0.34,2.572,1.019,3.56,1.946h49.435c0.154,0,0.276-0.135,0.259-0.289
	C124.875,22.314,102.432,1.097,74.895,0C74.748-0.006,74.625,0.113,74.625,0.26z"/>
<path fill="#4EC5D8" d="M74.625,66.119v37.076c0,0.148,0.125,0.267,0.273,0.26c21.832-1.069,39.634-17.685,42.562-38.986
	c0.021-0.156-0.101-0.295-0.258-0.295H78.185C77.197,65.101,75.979,65.78,74.625,66.119z"/>
<path fill="#4EC5D8" d="M67.924,47.669V10.593c0-0.148-0.125-0.267-0.273-0.26C45.82,11.403,28.017,28.019,25.089,49.319
	c-0.021,0.156,0.101,0.295,0.258,0.295h39.017C65.351,48.688,66.569,48.009,67.924,47.669z"/>
<path fill="#FFFFFF" d="M62.051,54.93H2.825v3.929h59.226c-0.159-0.63-0.253-1.285-0.253-1.965S61.892,55.56,62.051,54.93z"/>
<path fill="#FFFFFF" d="M80.498,54.93c0.159,0.63,0.253,1.285,0.253,1.964s-0.094,1.335-0.253,1.965h58.346V54.93H80.498z"/>
<circle fill="#FFFFFF" cx="71.274" cy="56.894" r="4.161"/>
<g>
	<path fill="#FFFFFF" d="M173.957,56.143h-6.518v-27.93h6.518V56.143z"/>
	<path fill="#FFFFFF" d="M184.021,28.251c0.192,0.026,0.365,0.074,0.518,0.144c0.153,0.071,0.3,0.17,0.441,0.297
		c0.141,0.128,0.3,0.301,0.48,0.518l13.265,16.774c-0.051-0.537-0.09-1.057-0.115-1.563c-0.026-0.504-0.038-0.98-0.038-1.428v-14.78
		h5.713v27.93h-3.374c-0.499,0-0.921-0.077-1.266-0.23c-0.345-0.153-0.677-0.434-0.997-0.844l-13.17-16.639
		c0.038,0.486,0.07,0.962,0.096,1.428c0.025,0.467,0.038,0.904,0.038,1.313v14.971H179.9v-27.93h3.412
		C183.592,28.213,183.829,28.225,184.021,28.251z"/>
	<path fill="#FFFFFF" d="M229.932,28.213v5.137h-7.86v22.793h-6.479V33.35h-7.86v-5.137H229.932z"/>
	<path fill="#FFFFFF" d="M251.364,28.213v4.984h-11.463v6.518h8.78v4.793h-8.78v6.652h11.463v4.984h-17.981v-27.93H251.364z"/>
	<path fill="#FFFFFF" d="M262.29,45.811v10.332h-6.479v-27.93h9.086c2.019,0,3.741,0.208,5.166,0.623
		c1.425,0.416,2.588,0.994,3.489,1.735c0.901,0.742,1.556,1.617,1.965,2.627c0.409,1.01,0.613,2.109,0.613,3.297
		c0,0.907-0.121,1.764-0.364,2.569c-0.243,0.806-0.604,1.55-1.083,2.233c-0.479,0.684-1.067,1.294-1.764,1.831
		c-0.696,0.537-1.498,0.978-2.406,1.323c0.435,0.218,0.84,0.486,1.217,0.806c0.377,0.32,0.706,0.709,0.987,1.169l5.943,9.719h-5.866
		c-1.087,0-1.866-0.409-2.339-1.227l-4.639-8.109c-0.204-0.358-0.444-0.614-0.719-0.767c-0.275-0.154-0.661-0.23-1.16-0.23H262.29z
		 M262.29,41.344h2.607c0.882,0,1.632-0.112,2.252-0.336c0.62-0.223,1.128-0.533,1.524-0.93c0.396-0.396,0.683-0.859,0.863-1.39
		c0.179-0.53,0.268-1.102,0.268-1.716c0-1.227-0.4-2.185-1.198-2.875c-0.799-0.69-2.035-1.036-3.709-1.036h-2.607V41.344z"/>
	<path fill="#FFFFFF" d="M308.067,56.143h-5.023c-0.562,0-1.026-0.131-1.39-0.393c-0.365-0.262-0.617-0.597-0.757-1.007
		l-1.649-4.869h-10.62l-1.649,4.869c-0.128,0.358-0.377,0.681-0.747,0.968c-0.371,0.288-0.824,0.431-1.361,0.431h-5.061
		l10.812-27.93h6.633L308.067,56.143z M290.124,45.465h7.63l-2.569-7.649c-0.166-0.485-0.361-1.057-0.585-1.715
		c-0.224-0.658-0.444-1.371-0.661-2.138c-0.205,0.78-0.415,1.502-0.633,2.167c-0.217,0.665-0.422,1.24-0.614,1.725L290.124,45.465z"
		/>
	<path fill="#FFFFFF" d="M328.714,48.916c0.152,0,0.306,0.029,0.46,0.086c0.152,0.058,0.3,0.157,0.441,0.297l2.569,2.703
		c-1.125,1.47-2.534,2.578-4.228,3.326c-1.694,0.748-3.698,1.121-6.009,1.121c-2.123,0-4.023-0.361-5.703-1.083
		c-1.681-0.722-3.106-1.719-4.275-2.991c-1.17-1.271-2.068-2.78-2.693-4.524c-0.626-1.745-0.94-3.639-0.94-5.684
		c0-2.083,0.358-3.997,1.074-5.741c0.716-1.744,1.716-3.249,3-4.514c1.284-1.265,2.821-2.249,4.609-2.952
		c1.789-0.703,3.764-1.055,5.924-1.055c1.049,0,2.035,0.093,2.963,0.278c0.926,0.185,1.791,0.441,2.596,0.767
		c0.805,0.326,1.548,0.716,2.224,1.17c0.678,0.454,1.279,0.956,1.803,1.505l-2.187,2.933c-0.14,0.179-0.306,0.342-0.497,0.489
		c-0.193,0.147-0.46,0.22-0.805,0.22c-0.23,0-0.448-0.051-0.653-0.153c-0.205-0.102-0.421-0.227-0.651-0.374
		c-0.23-0.147-0.483-0.307-0.758-0.48s-0.6-0.332-0.977-0.479c-0.378-0.147-0.819-0.271-1.324-0.374s-1.095-0.153-1.772-0.153
		c-1.177,0-2.249,0.208-3.222,0.623c-0.971,0.416-1.805,1.01-2.501,1.783c-0.697,0.773-1.24,1.709-1.63,2.808
		c-0.39,1.099-0.585,2.332-0.585,3.7c0,1.432,0.195,2.703,0.585,3.815c0.39,1.112,0.92,2.048,1.591,2.808
		c0.672,0.76,1.454,1.339,2.349,1.735c0.895,0.396,1.854,0.594,2.875,0.594c0.589,0,1.125-0.029,1.61-0.086s0.938-0.156,1.353-0.297
		c0.415-0.141,0.811-0.323,1.187-0.547c0.378-0.223,0.758-0.501,1.142-0.834c0.152-0.128,0.318-0.233,0.497-0.316
		C328.336,48.958,328.521,48.916,328.714,48.916z"/>
	<path fill="#FFFFFF" d="M356.183,28.213v5.137h-7.859v22.793h-6.479V33.35h-7.86v-5.137H356.183z"/>
	<path fill="#FFFFFF" d="M366.726,56.143h-6.518v-27.93h6.518V56.143z"/>
	<path fill="#FFFFFF" d="M370.368,28.213h5.214c0.562,0,1.022,0.128,1.38,0.384c0.358,0.255,0.614,0.594,0.767,1.016l5.406,14.953
		c0.243,0.652,0.488,1.361,0.738,2.128c0.249,0.767,0.482,1.572,0.7,2.416c0.178-0.844,0.386-1.649,0.623-2.416
		c0.237-0.767,0.47-1.476,0.7-2.128l5.367-14.953c0.128-0.357,0.377-0.68,0.748-0.968c0.37-0.288,0.824-0.431,1.361-0.431h5.252
		l-11.194,27.93h-5.866L370.368,28.213z"/>
	<path fill="#FFFFFF" d="M419.672,28.213v4.984h-11.463v6.518h8.779v4.793h-8.779v6.652h11.463v4.984h-17.981v-27.93H419.672z"/>
</g>
<g>
	<path fill="#FFFFFF" d="M171.336,89.521h-3.742V63.424h3.742V89.521z"/>
	<path fill="#FFFFFF" d="M180.643,63.542c0.161,0.079,0.344,0.24,0.55,0.483l16.011,19.668c-0.039-0.315-0.065-0.622-0.077-0.92
		c-0.013-0.297-0.019-0.586-0.019-0.865V63.424h3.279v26.097h-1.89c-0.296,0-0.543-0.048-0.743-0.146
		c-0.2-0.097-0.396-0.261-0.589-0.492l-15.991-19.65c0.025,0.304,0.045,0.601,0.058,0.892c0.013,0.291,0.019,0.559,0.019,0.802
		v18.593h-3.279V63.424h1.929C180.234,63.424,180.482,63.464,180.643,63.542z"/>
	<path fill="#FFFFFF" d="M225.192,63.424v2.969h-8.931v23.128h-3.742V66.392h-8.97v-2.969H225.192z"/>
	<path fill="#FFFFFF" d="M245.388,63.424v2.878h-13.271v8.669h10.744v2.768h-10.744v8.905h13.271v2.878h-17.033V63.424H245.388z"/>
	<path fill="#FFFFFF" d="M253.74,86.552h11.96v2.969h-15.702V63.424h3.742V86.552z"/>
	<path fill="#FFFFFF" d="M272.798,86.552h11.96v2.969h-15.702V63.424h3.742V86.552z"/>
	<path fill="#FFFFFF" d="M292.551,89.521h-3.742V63.424h3.742V89.521z"/>
	<path fill="#FFFFFF" d="M311.512,86.953c0.746,0,1.431-0.034,2.054-0.1c0.624-0.067,1.212-0.167,1.765-0.301
		c0.553-0.133,1.074-0.294,1.563-0.482c0.489-0.188,0.977-0.403,1.466-0.647v-5.755h-4.282c-0.245,0-0.441-0.067-0.588-0.2
		c-0.148-0.134-0.222-0.297-0.222-0.492v-2.003h8.488v10.016c-0.696,0.474-1.419,0.886-2.171,1.239
		c-0.752,0.352-1.555,0.646-2.411,0.883c-0.855,0.237-1.771,0.413-2.748,0.528c-0.978,0.115-2.038,0.173-3.183,0.173
		c-2.006,0-3.845-0.325-5.517-0.974c-1.672-0.65-3.112-1.56-4.321-2.732c-1.209-1.171-2.151-2.577-2.826-4.216
		c-0.675-1.639-1.013-3.442-1.013-5.409c0-1.991,0.331-3.806,0.993-5.445c0.662-1.639,1.608-3.044,2.836-4.216
		c1.228-1.171,2.713-2.079,4.456-2.723c1.743-0.643,3.694-0.965,5.854-0.965c1.093,0,2.109,0.076,3.048,0.228
		c0.939,0.152,1.81,0.37,2.613,0.655c0.805,0.286,1.548,0.632,2.228,1.038c0.682,0.407,1.32,0.865,1.91,1.375l-1.06,1.603
		c-0.22,0.327-0.503,0.492-0.85,0.492c-0.205,0-0.431-0.067-0.674-0.201c-0.322-0.17-0.682-0.376-1.08-0.619
		c-0.4-0.243-0.885-0.477-1.457-0.701c-0.572-0.225-1.247-0.416-2.025-0.574c-0.778-0.158-1.701-0.237-2.768-0.237
		c-1.556,0-2.964,0.24-4.224,0.719c-1.261,0.48-2.334,1.166-3.222,2.058c-0.887,0.892-1.569,1.973-2.045,3.242
		c-0.476,1.269-0.714,2.692-0.714,4.271c0,1.651,0.248,3.123,0.743,4.416c0.495,1.293,1.193,2.389,2.093,3.287
		c0.9,0.899,1.968,1.584,3.202,2.058C308.657,86.716,310.02,86.953,311.512,86.953z"/>
	<path fill="#FFFFFF" d="M343.764,63.424v2.878h-13.271v8.669h10.745v2.768h-10.745v8.905h13.271v2.878h-17.032V63.424H343.764z"/>
	<path fill="#FFFFFF" d="M351.045,63.542c0.161,0.079,0.344,0.24,0.55,0.483l16.011,19.668c-0.039-0.315-0.064-0.622-0.077-0.92
		c-0.014-0.297-0.019-0.586-0.019-0.865V63.424h3.28v26.097h-1.891c-0.296,0-0.544-0.048-0.743-0.146
		c-0.2-0.097-0.396-0.261-0.589-0.492l-15.991-19.65c0.026,0.304,0.045,0.601,0.058,0.892c0.013,0.291,0.02,0.559,0.02,0.802v18.593
		h-3.28V63.424h1.929C350.637,63.424,350.884,63.464,351.045,63.542z"/>
	<path fill="#FFFFFF" d="M396.25,84.13c0.206,0,0.392,0.079,0.559,0.237l1.466,1.512c-1.132,1.238-2.505,2.204-4.118,2.896
		c-1.614,0.692-3.559,1.038-5.836,1.038c-1.993,0-3.8-0.325-5.42-0.974c-1.621-0.65-3.003-1.56-4.148-2.732
		c-1.144-1.171-2.032-2.577-2.662-4.216c-0.631-1.639-0.945-3.442-0.945-5.409c0-1.967,0.338-3.77,1.013-5.409
		c0.675-1.639,1.624-3.048,2.846-4.225c1.221-1.177,2.684-2.091,4.389-2.741c1.704-0.65,3.584-0.974,5.642-0.974
		c2.031,0,3.783,0.297,5.256,0.892c1.473,0.595,2.781,1.402,3.926,2.422l-1.215,1.621c-0.09,0.122-0.193,0.222-0.309,0.301
		c-0.115,0.079-0.283,0.118-0.501,0.118c-0.168,0-0.344-0.058-0.531-0.173c-0.186-0.115-0.408-0.258-0.665-0.428
		c-0.257-0.17-0.559-0.352-0.907-0.547c-0.347-0.194-0.758-0.376-1.234-0.546c-0.477-0.17-1.029-0.312-1.659-0.428
		c-0.631-0.115-1.358-0.173-2.18-0.173c-1.479,0-2.832,0.24-4.06,0.719c-1.229,0.48-2.286,1.163-3.173,2.049
		c-0.888,0.886-1.579,1.967-2.074,3.242c-0.495,1.275-0.743,2.701-0.743,4.279c0,1.627,0.248,3.078,0.743,4.353
		c0.495,1.275,1.171,2.352,2.025,3.232c0.856,0.881,1.868,1.551,3.039,2.013c1.17,0.461,2.431,0.692,3.78,0.692
		c0.823,0,1.562-0.046,2.218-0.136c0.656-0.091,1.263-0.234,1.823-0.428c0.559-0.194,1.081-0.44,1.563-0.737
		c0.481-0.297,0.967-0.652,1.456-1.065C395.832,84.221,396.045,84.13,396.25,84.13z"/>
	<path fill="#FFFFFF" d="M419.456,63.424v2.878h-13.271v8.669h10.745v2.768h-10.745v8.905h13.271v2.878h-17.032V63.424H419.456z"/>
</g>
<g>
	<path fill="#FFFFFF" d="M421.538,65.024c0-0.208,0.027-0.409,0.082-0.602c0.054-0.193,0.13-0.373,0.229-0.541
		c0.098-0.167,0.215-0.32,0.354-0.458c0.138-0.138,0.291-0.256,0.458-0.354s0.347-0.174,0.539-0.229
		c0.192-0.054,0.392-0.081,0.601-0.081c0.208,0,0.409,0.027,0.602,0.081c0.193,0.054,0.373,0.131,0.541,0.229
		c0.168,0.098,0.32,0.216,0.458,0.354c0.138,0.138,0.256,0.291,0.354,0.458c0.098,0.168,0.174,0.348,0.229,0.541
		c0.054,0.193,0.081,0.394,0.081,0.602c0,0.206-0.027,0.406-0.081,0.599c-0.054,0.193-0.131,0.373-0.229,0.539
		s-0.216,0.319-0.354,0.457c-0.138,0.138-0.291,0.256-0.458,0.354c-0.168,0.098-0.348,0.174-0.541,0.229
		c-0.193,0.054-0.394,0.081-0.602,0.081c-0.208,0-0.409-0.027-0.601-0.081c-0.192-0.054-0.372-0.131-0.539-0.229
		s-0.32-0.216-0.458-0.354c-0.138-0.138-0.256-0.291-0.354-0.457c-0.098-0.167-0.175-0.346-0.229-0.538
		C421.565,65.432,421.538,65.232,421.538,65.024z M421.952,65.024c0,0.266,0.047,0.514,0.142,0.745
		c0.096,0.231,0.226,0.432,0.393,0.602c0.167,0.171,0.362,0.305,0.587,0.403c0.225,0.098,0.467,0.147,0.726,0.147
		c0.26,0,0.502-0.049,0.73-0.147c0.226-0.098,0.423-0.232,0.591-0.403c0.168-0.17,0.299-0.371,0.396-0.602
		c0.096-0.231,0.144-0.479,0.144-0.745c0-0.178-0.022-0.348-0.066-0.511c-0.044-0.164-0.106-0.316-0.185-0.458
		c-0.079-0.142-0.176-0.271-0.289-0.386c-0.114-0.115-0.239-0.214-0.375-0.297c-0.137-0.083-0.285-0.147-0.445-0.192
		c-0.159-0.045-0.326-0.067-0.5-0.067s-0.34,0.022-0.498,0.067c-0.159,0.045-0.306,0.109-0.443,0.192
		c-0.137,0.083-0.261,0.182-0.372,0.297c-0.112,0.115-0.207,0.244-0.287,0.386s-0.141,0.294-0.184,0.458
		C421.973,64.676,421.952,64.846,421.952,65.024z M423.456,65.395v0.996h-0.656v-2.749h0.984c0.382,0,0.662,0.069,0.84,0.205
		c0.177,0.137,0.267,0.333,0.267,0.589c0,0.182-0.047,0.341-0.141,0.476c-0.094,0.136-0.24,0.236-0.438,0.299
		c0.047,0.026,0.085,0.059,0.116,0.1c0.03,0.04,0.061,0.086,0.091,0.139l0.555,0.941h-0.631c-0.092,0-0.157-0.034-0.193-0.101
		l-0.441-0.806c-0.021-0.029-0.044-0.051-0.069-0.066s-0.064-0.023-0.115-0.023H423.456z M423.456,64.926h0.273
		c0.104,0,0.189-0.009,0.257-0.026c0.067-0.017,0.12-0.044,0.158-0.078c0.038-0.034,0.064-0.077,0.078-0.128
		c0.014-0.051,0.022-0.109,0.022-0.175c0-0.064-0.007-0.119-0.018-0.167c-0.013-0.048-0.035-0.088-0.069-0.12
		c-0.034-0.032-0.081-0.055-0.141-0.07c-0.06-0.016-0.137-0.023-0.231-0.023h-0.328V64.926z"/>
</g>
<g>
	<path fill="#FFFFFF" d="M521.641,63.475c0.106,0,0.197,0.038,0.272,0.112l0.64,0.688c-0.469,0.501-0.981,0.952-1.536,1.352
		c-0.555,0.4-1.159,0.741-1.815,1.024s-1.376,0.501-2.16,0.656c-0.784,0.155-1.646,0.232-2.584,0.232
		c-1.568,0-3.006-0.274-4.312-0.824s-2.427-1.328-3.359-2.336c-0.934-1.008-1.662-2.227-2.185-3.656
		c-0.522-1.429-0.783-3.019-0.783-4.768c0-1.717,0.269-3.285,0.808-4.704c0.538-1.418,1.296-2.637,2.272-3.656
		c0.976-1.019,2.144-1.808,3.504-2.368c1.359-0.56,2.861-0.84,4.504-0.84c0.821,0,1.573,0.062,2.256,0.184s1.32,0.299,1.912,0.528
		c0.592,0.229,1.149,0.515,1.672,0.856c0.522,0.342,1.034,0.736,1.536,1.184l-0.496,0.72c-0.086,0.128-0.219,0.192-0.4,0.192
		c-0.096,0-0.219-0.056-0.368-0.168c-0.149-0.112-0.338-0.25-0.567-0.416s-0.507-0.347-0.832-0.544s-0.712-0.378-1.16-0.544
		s-0.966-0.304-1.552-0.416c-0.587-0.112-1.254-0.168-2-0.168c-1.376,0-2.641,0.237-3.792,0.712
		c-1.152,0.475-2.145,1.152-2.977,2.032c-0.832,0.88-1.479,1.947-1.943,3.2s-0.696,2.659-0.696,4.216c0,1.6,0.229,3.03,0.688,4.288
		c0.459,1.259,1.094,2.323,1.904,3.192c0.811,0.87,1.769,1.536,2.872,2c1.104,0.464,2.302,0.696,3.592,0.696
		c0.811,0,1.533-0.053,2.168-0.16c0.635-0.106,1.219-0.267,1.752-0.48s1.029-0.475,1.488-0.784c0.459-0.309,0.912-0.672,1.36-1.088
		c0.053-0.042,0.104-0.077,0.151-0.104C521.521,63.488,521.577,63.475,521.641,63.475z"/>
	<path fill="#FFFFFF" d="M547.896,55.955c0,1.75-0.262,3.336-0.784,4.76c-0.522,1.424-1.259,2.64-2.208,3.648
		c-0.949,1.008-2.085,1.787-3.407,2.336c-1.323,0.549-2.79,0.824-4.4,0.824c-1.59,0-3.046-0.275-4.368-0.824
		s-2.459-1.328-3.408-2.336c-0.949-1.008-1.688-2.224-2.216-3.648c-0.527-1.424-0.792-3.011-0.792-4.76
		c0-1.738,0.265-3.32,0.792-4.744c0.528-1.424,1.267-2.64,2.216-3.648c0.949-1.008,2.086-1.789,3.408-2.344s2.778-0.832,4.368-0.832
		c1.61,0,3.077,0.275,4.4,0.824c1.322,0.549,2.458,1.331,3.407,2.344c0.949,1.014,1.686,2.232,2.208,3.656
		C547.635,52.635,547.896,54.216,547.896,55.955z M546.201,55.955c0-1.579-0.219-2.997-0.656-4.256
		c-0.438-1.258-1.054-2.325-1.849-3.2c-0.794-0.875-1.752-1.544-2.871-2.008c-1.12-0.464-2.363-0.696-3.729-0.696
		c-1.344,0-2.573,0.232-3.688,0.696c-1.115,0.464-2.075,1.133-2.881,2.008c-0.805,0.875-1.429,1.942-1.872,3.2
		c-0.442,1.259-0.663,2.677-0.663,4.256c0,1.59,0.221,3.011,0.663,4.264c0.443,1.253,1.067,2.317,1.872,3.192
		c0.806,0.875,1.766,1.542,2.881,2c1.114,0.459,2.344,0.688,3.688,0.688c1.365,0,2.608-0.229,3.729-0.688
		c1.119-0.458,2.077-1.125,2.871-2c0.795-0.875,1.411-1.938,1.849-3.192S546.201,57.544,546.201,55.955z"/>
	<path fill="#FFFFFF" d="M554.856,65.891h10.735v1.392h-12.367v-22.64h1.632V65.891z"/>
	<path fill="#FFFFFF" d="M571.224,65.891h10.735v1.392h-12.367v-22.64h1.632V65.891z"/>
	<path fill="#FFFFFF" d="M603,67.283h-1.265c-0.149,0-0.271-0.04-0.368-0.12c-0.096-0.08-0.17-0.184-0.224-0.312l-2.672-6.576
		h-11.12l-2.656,6.576c-0.042,0.118-0.117,0.219-0.224,0.304s-0.234,0.128-0.384,0.128h-1.248l9.264-22.64h1.632L603,67.283z
		 M587.848,59.059h10.144l-4.624-11.44c-0.074-0.181-0.149-0.386-0.224-0.616s-0.149-0.472-0.224-0.728
		c-0.075,0.256-0.149,0.499-0.225,0.728c-0.074,0.229-0.149,0.44-0.224,0.632L587.848,59.059z"/>
	<path fill="#FFFFFF" d="M606.584,67.283v-22.64h6.512c1.29,0,2.408,0.128,3.352,0.384c0.944,0.256,1.726,0.632,2.345,1.128
		c0.618,0.496,1.08,1.102,1.384,1.816c0.304,0.715,0.456,1.525,0.456,2.432c0,0.597-0.104,1.173-0.312,1.728
		s-0.509,1.066-0.903,1.536c-0.396,0.47-0.878,0.878-1.448,1.224c-0.571,0.347-1.225,0.611-1.96,0.792
		c1.781,0.267,3.151,0.859,4.112,1.776c0.96,0.917,1.439,2.128,1.439,3.632c0,0.96-0.171,1.824-0.512,2.592
		c-0.342,0.768-0.838,1.419-1.488,1.952c-0.65,0.534-1.451,0.941-2.4,1.224s-2.026,0.424-3.231,0.424H606.584z M608.216,55.235
		h4.912c1.045,0,1.938-0.133,2.68-0.4c0.741-0.266,1.35-0.618,1.824-1.056s0.824-0.933,1.048-1.488
		c0.224-0.554,0.336-1.125,0.336-1.712c0-1.525-0.482-2.68-1.448-3.464c-0.965-0.784-2.456-1.176-4.472-1.176h-4.88V55.235z
		 M608.216,56.435v9.536h5.68c1.994,0,3.499-0.429,4.512-1.288c1.014-0.858,1.521-2.066,1.521-3.624
		c0-0.714-0.136-1.357-0.408-1.928c-0.271-0.571-0.664-1.056-1.176-1.456s-1.142-0.707-1.888-0.92
		c-0.747-0.213-1.595-0.32-2.544-0.32H608.216z"/>
	<path fill="#FFFFFF" d="M647.287,55.955c0,1.75-0.262,3.336-0.784,4.76c-0.522,1.424-1.259,2.64-2.208,3.648
		c-0.949,1.008-2.085,1.787-3.407,2.336c-1.323,0.549-2.79,0.824-4.4,0.824c-1.59,0-3.046-0.275-4.368-0.824
		s-2.459-1.328-3.408-2.336c-0.949-1.008-1.688-2.224-2.216-3.648c-0.527-1.424-0.792-3.011-0.792-4.76
		c0-1.738,0.265-3.32,0.792-4.744c0.528-1.424,1.267-2.64,2.216-3.648c0.949-1.008,2.086-1.789,3.408-2.344s2.778-0.832,4.368-0.832
		c1.61,0,3.077,0.275,4.4,0.824c1.322,0.549,2.458,1.331,3.407,2.344c0.949,1.014,1.686,2.232,2.208,3.656
		C647.025,52.635,647.287,54.216,647.287,55.955z M645.592,55.955c0-1.579-0.219-2.997-0.656-4.256
		c-0.438-1.258-1.054-2.325-1.849-3.2c-0.794-0.875-1.752-1.544-2.871-2.008c-1.12-0.464-2.363-0.696-3.729-0.696
		c-1.344,0-2.573,0.232-3.688,0.696c-1.115,0.464-2.075,1.133-2.881,2.008c-0.805,0.875-1.429,1.942-1.872,3.2
		c-0.442,1.259-0.663,2.677-0.663,4.256c0,1.59,0.221,3.011,0.663,4.264c0.443,1.253,1.067,2.317,1.872,3.192
		c0.806,0.875,1.766,1.542,2.881,2c1.114,0.459,2.344,0.688,3.688,0.688c1.365,0,2.608-0.229,3.729-0.688
		c1.119-0.458,2.077-1.125,2.871-2c0.795-0.875,1.411-1.938,1.849-3.192S645.592,57.544,645.592,55.955z"/>
	<path fill="#FFFFFF" d="M654.727,57.042v10.24h-1.632v-22.64h5.776c2.613,0,4.565,0.504,5.855,1.512
		c1.291,1.008,1.937,2.488,1.937,4.44c0,0.864-0.149,1.653-0.448,2.368c-0.299,0.714-0.728,1.341-1.288,1.88
		c-0.56,0.539-1.234,0.981-2.023,1.328c-0.79,0.347-1.681,0.573-2.673,0.68c0.257,0.16,0.485,0.374,0.688,0.64l7.792,9.792h-1.424
		c-0.171,0-0.317-0.032-0.44-0.096c-0.122-0.064-0.242-0.17-0.359-0.32l-7.248-9.184c-0.182-0.234-0.376-0.4-0.584-0.496
		c-0.208-0.096-0.531-0.144-0.969-0.144H654.727z M654.727,55.827h3.937c1.002,0,1.901-0.12,2.695-0.36
		c0.795-0.24,1.467-0.584,2.017-1.032c0.549-0.448,0.968-0.986,1.256-1.616s0.432-1.339,0.432-2.128
		c0-1.611-0.527-2.806-1.584-3.584c-1.056-0.779-2.592-1.168-4.607-1.168h-4.145V55.827z"/>
	<path fill="#FFFFFF" d="M689.847,67.283h-1.265c-0.149,0-0.271-0.04-0.368-0.12c-0.096-0.08-0.17-0.184-0.224-0.312l-2.672-6.576
		h-11.12l-2.656,6.576c-0.042,0.118-0.117,0.219-0.224,0.304s-0.234,0.128-0.384,0.128h-1.248l9.264-22.64h1.632L689.847,67.283z
		 M674.694,59.059h10.144l-4.624-11.44c-0.074-0.181-0.149-0.386-0.224-0.616s-0.149-0.472-0.224-0.728
		c-0.075,0.256-0.149,0.499-0.225,0.728c-0.074,0.229-0.149,0.44-0.224,0.632L674.694,59.059z"/>
	<path fill="#FFFFFF" d="M706.373,44.643v1.392h-7.951v21.248h-1.633V46.035h-8v-1.392H706.373z"/>
	<path fill="#FFFFFF" d="M723.861,44.643v1.36h-11.92v9.152h9.92v1.328h-9.92v9.44h11.92v1.36h-13.567v-22.64H723.861z"/>
</g>
<line fill="none" stroke="#FFFFFF" stroke-miterlimit="10" x1="463.667" y1="28.213" x2="463.667" y2="89.812"/>
</svg>
